<svg xmlns="http://www.w3.org/2000/svg" xmlns:xlink="http://www.w3.org/1999/xlink" style="margin:auto;background:#fff;display:block;" width="500px" height="500px" viewBox="0 0 100 100" preserveAspectRatio="xMidYMid">
<defs>
  <clipPath id="progress-11maq9qj7az-cp" x="0" y="0" width="100" height="100">
    <rect x="0" y="0" width="0" height="100">
      <animate attributeName="width" repeatCount="indefinite" dur="1s" values="0;100;100" keyTimes="0;0.5;1"></animate>
      <animate attributeName="x" repeatCount="indefinite" dur="1s" values="0;0;100" keyTimes="0;0.5;1"></animate>
    </rect>
  </clipPath>
</defs>
<path fill="none" stroke="#64ffb5" stroke-width="2.79" d="M18.5 36.895L81.49999999999999 36.895A13.104999999999999 13.104999999999999 0 0 1 94.60499999999999 50L94.60499999999999 50A13.104999999999999 13.104999999999999 0 0 1 81.49999999999999 63.105L18.5 63.105A13.104999999999999 13.104999999999999 0 0 1 5.395000000000003 50L5.395000000000003 50A13.104999999999999 13.104999999999999 0 0 1 18.5 36.895 Z"></path>
<path fill="#64ffb5" clip-path="url(#progress-11maq9qj7az-cp)" d="M18.5 40.99L81.5 40.99A9.009999999999998 9.009999999999998 0 0 1 90.50999999999999 50L90.50999999999999 50A9.009999999999998 9.009999999999998 0 0 1 81.5 59.01L18.5 59.01A9.009999999999998 9.009999999999998 0 0 1 9.490000000000004 50L9.490000000000004 50A9.009999999999998 9.009999999999998 0 0 1 18.5 40.99 Z"></path>
</svg>