<svg xmlns="http://www.w3.org/2000/svg" viewBox="0 0 371.95 66.79"><defs><style>.cls-1{fill:#fff;}.cls-2{fill:#64ffb5;}</style></defs><title>tjlogo_1</title><g id="Capa_2" data-name="Capa 2"><g id="Capa_1-2" data-name="Capa 1"><path class="cls-1" d="M63,47.84V14.45H52.88V10.5H77.31v3.95h-10V47.84Z"/><path class="cls-1" d="M93.47,19.41v4.21q-8.2,0-8.21,10.94V47.84H81.05V20.1h4.16v4.64a7.43,7.43,0,0,1,3-3.79A9.09,9.09,0,0,1,93.47,19.41Z"/><path class="cls-1" d="M96.36,39.31a8.28,8.28,0,0,1,3-6.54A11.33,11.33,0,0,1,107,30.18a12.21,12.21,0,0,1,4.41.75,8,8,0,0,1,2.9,1.76V29.28a5.74,5.74,0,0,0-1.81-4.51,7.07,7.07,0,0,0-4.91-1.63,15.87,15.87,0,0,0-8.16,2.4l-1.71-3.09a19,19,0,0,1,10.24-3c3.63,0,6.3.9,8,2.72a10.39,10.39,0,0,1,2.56,7.41v18.3h-3.63l-.48-2.35a9.47,9.47,0,0,1-7.52,3A11.18,11.18,0,0,1,99.34,46,8.39,8.39,0,0,1,96.36,39.31Zm6.18-4.14a5.14,5.14,0,0,0-1.92,4.08,5.2,5.2,0,0,0,1.92,4.11A7.51,7.51,0,0,0,107.61,45a7.42,7.42,0,0,0,5-1.62,5.2,5.2,0,0,0,1.92-4.14,5.1,5.1,0,0,0-1.89-4.16,7.72,7.72,0,0,0-5-1.55A7.52,7.52,0,0,0,102.54,35.17Z"/><path class="cls-1" d="M150.77,9.27V47.84h-4.11V43.47a11,11,0,0,1-9.6,5.06,12.7,12.7,0,0,1-9.76-4.08A14.69,14.69,0,0,1,123.51,34a15.09,15.09,0,0,1,3.68-10.53,12.25,12.25,0,0,1,9.55-4.08A10.85,10.85,0,0,1,143,21.14a11.18,11.18,0,0,1,3.47,3.44V9.27Zm-4.11,24.81A11.21,11.21,0,0,0,144,26.16a8.83,8.83,0,0,0-6.75-2.91,8.53,8.53,0,0,0-6.75,3,11.45,11.45,0,0,0-2.64,7.79,11.06,11.06,0,0,0,2.69,7.71,8.77,8.77,0,0,0,6.75,3,8.4,8.4,0,0,0,6.83-3.1A11.47,11.47,0,0,0,146.66,34.08Z"/><path class="cls-1" d="M156.21,34.08a14.73,14.73,0,0,1,3.89-10.59,12.7,12.7,0,0,1,9.55-4.08,12.32,12.32,0,0,1,9.6,3.92,14.67,14.67,0,0,1,3.58,10.27,11.7,11.7,0,0,1-.06,1.28H160.53a9.73,9.73,0,0,0,2.83,7.25,9.86,9.86,0,0,0,7.14,2.67,10,10,0,0,0,8.65-4.32l2.77,2a12.92,12.92,0,0,1-4.32,4.21,13.16,13.16,0,0,1-7.15,1.81,13.81,13.81,0,0,1-10.27-4A14.22,14.22,0,0,1,156.21,34.08Zm4.53-2.35h17.77A8.52,8.52,0,0,0,169.65,23a8.64,8.64,0,0,0-6.08,2.42A8.89,8.89,0,0,0,160.74,31.73Z"/><path class="cls-1" d="M190.4,44.4A14.18,14.18,0,0,1,186.29,34,14.14,14.14,0,0,1,200.8,19.41a13.92,13.92,0,0,1,10.35,4.16A14.2,14.2,0,0,1,215.26,34a14.17,14.17,0,0,1-4.13,10.4,15,15,0,0,1-20.73,0ZM190.61,34a10.78,10.78,0,0,0,2.86,7.71,9.58,9.58,0,0,0,7.28,3,9.68,9.68,0,0,0,7.36-3A10.72,10.72,0,0,0,211,34a10.73,10.73,0,0,0-2.88-7.68,9.68,9.68,0,0,0-7.36-3,9.49,9.49,0,0,0-7.28,3.07A10.8,10.8,0,0,0,190.61,34Z"/><path class="cls-2" d="M234.46,10.5V38.13q0,5.28-3.14,7.66a13.22,13.22,0,0,1-8.17,2.37,22.08,22.08,0,0,1-5.12-.59l1.07-8a15.6,15.6,0,0,0,2.88.27,3.25,3.25,0,0,0,2.51-.94,3.45,3.45,0,0,0,.85-2.43V10.5Z"/><path class="cls-2" d="M243.16,44.4a14,14,0,0,1-4.27-10.48,14.1,14.1,0,0,1,4.35-10.56,15,15,0,0,1,10.85-4.22,15.34,15.34,0,0,1,11,4.14,13.92,13.92,0,0,1,4.32,10.53,14,14,0,0,1-4.38,10.54,15.25,15.25,0,0,1-11,4.18A15,15,0,0,1,243.16,44.4Zm4.64-10.48a6.79,6.79,0,0,0,1.79,4.91,6,6,0,0,0,4.5,1.86,6.12,6.12,0,0,0,4.62-1.94,7,7,0,0,0,1.84-4.94,6.79,6.79,0,0,0-1.84-4.93,6.16,6.16,0,0,0-4.62-1.9,5.86,5.86,0,0,0-4.53,1.92A7.16,7.16,0,0,0,247.8,33.92Z"/><path class="cls-2" d="M289.57,47.84V31.14a4.06,4.06,0,0,0-1-3,3.55,3.55,0,0,0-2.66-1,3.64,3.64,0,0,0-2.83,1.12,4.12,4.12,0,0,0-1,2.88v16.7h-8.91v-28h8.69v2.88a7.68,7.68,0,0,1,2.78-2.5,8.42,8.42,0,0,1,4.26-1.07,10.42,10.42,0,0,1,4.35.85,7.64,7.64,0,0,1,2.83,2.11,9.27,9.27,0,0,1,1.54,3.15,18.07,18.07,0,0,1,.72,3.47,35,35,0,0,1,.16,3.6V47.84Z"/><path class="cls-2" d="M329.47,36.16H311.12A4.6,4.6,0,0,0,313,39.44,6.26,6.26,0,0,0,317,40.8a6.67,6.67,0,0,0,3.71-1,7.07,7.07,0,0,0,2.16-2l5.86,4.54a11.71,11.71,0,0,1-4,4.08,13.67,13.67,0,0,1-7.84,2.1q-6.78,0-10.83-4.13A14.37,14.37,0,0,1,302,33.92a15.13,15.13,0,0,1,3.85-10.54,12.75,12.75,0,0,1,9.92-4.24q6.62,0,10.19,4t3.57,11.23C329.52,35.14,329.5,35.73,329.47,36.16Zm-10.33-8.62a4.35,4.35,0,0,0-3.22-1.2,4.16,4.16,0,0,0-3.2,1.26,4.79,4.79,0,0,0-1.34,2.9h9.07A4.43,4.43,0,0,0,319.14,27.54Z"/><path class="cls-2" d="M342.06,48.53a14.12,14.12,0,0,1-6.51-1.44,12,12,0,0,1-4.27-3.36l5-4.85a9.11,9.11,0,0,0,6.18,2.45c1.67,0,2.51-.51,2.51-1.54a1.57,1.57,0,0,0-1-1.31,10.15,10.15,0,0,0-2.37-1,24.37,24.37,0,0,1-3.07-1.12,18.84,18.84,0,0,1-3.07-1.68A7.59,7.59,0,0,1,333.15,32a8.73,8.73,0,0,1-1-4.19,7.52,7.52,0,0,1,3-6.29A12.25,12.25,0,0,1,343,19.14a11.7,11.7,0,0,1,10,4.8l-5.76,4.54a6.53,6.53,0,0,0-4.64-2.19c-1.35,0-2,.46-2,1.39,0,.64.45,1.16,1.34,1.57a23.28,23.28,0,0,0,3.22,1.17,30.13,30.13,0,0,1,3.79,1.42,7.83,7.83,0,0,1,4.56,7.47A8,8,0,0,1,350.22,46,13,13,0,0,1,342.06,48.53Z"/><path class="cls-1" d="M9.06,44.34V11H0V0H30.85V11H21.66V44.34Z"/><path class="cls-2" d="M20.44,66.1,22,55.2a23.16,23.16,0,0,0,3.29.25,3.47,3.47,0,0,0,2.72-1,3.36,3.36,0,0,0,.89-2.37v-30H41.47V54.5q0,12.3-14,12.29A29.4,29.4,0,0,1,20.44,66.1Z"/><path class="cls-1" d="M357.21,21.29V14h-2.09V12.37h6V14H359v7.3Z"/><path class="cls-1" d="M364.52,12.37l2.55,6.08,2.56-6.08H372v8.92h-1.72V14.92l-2.32,5.62h-1.67l-2.31-5.62v6.37h-1.72V12.37Z"/></g></g></svg>
