<svg xmlns="http://www.w3.org/2000/svg" version="1.1" xmlns:xlink="http://www.w3.org/1999/xlink" xmlns:svgjs="http://svgjs.com/svgjs" width="512" height="512" x="0" y="0" viewBox="0 0 24 24" style="enable-background:new 0 0 512 512" xml:space="preserve"><g><path xmlns="http://www.w3.org/2000/svg" d="m19.5 18c-2.481 0-4.5-2.019-4.5-4.5s2.019-4.5 4.5-4.5h2.5v-2c0-1.103-.897-2-2-2h-1v-2c0-1.103-.897-2-2-2h-14c-1.483 0-2.709 1.084-2.949 2.499-.022.082-.051.162-.051.251v15.25c0 1.654 1.346 3 3 3h17c1.103 0 2-.897 2-2v-2zm-17.5-14c0-.551.448-1 1-1h14v2h-14c-.552 0-1-.449-1-1z" fill="#000000" data-original="#000000"/><path xmlns="http://www.w3.org/2000/svg" d="m23.25 10.5h-3.75c-1.654 0-3 1.346-3 3s1.346 3 3 3h3.75c.414 0 .75-.336.75-.75v-4.5c0-.414-.336-.75-.75-.75zm-3.75 4c-.552 0-1-.448-1-1s.448-1 1-1 1 .448 1 1-.448 1-1 1z" fill="#000000" data-original="#000000"/></g></svg>